<svg id="Capa_1" enable-background="new 0 0 512 512" height="512" viewBox="0 0 512 512" width="512" xmlns="http://www.w3.org/2000/svg"><g><g><g><g><g><path d="m58.064 0h-58.064v512h202.227l30.21-154.048-30.21-299.267z" fill="#7d89e5"/><path d="m346.337 0-143.053 59.115-1.057-.43v453.315h187.429v-30.064l14.797-169.922v-312.014z" fill="#706bef"/></g><path d="m57.432 0v449.231h144.795l33.136-227.022-33.136-222.209z" fill="#edf6ff"/><path d="m202.227 0v449.231h106.17l38.624-116.456v-332.775z" fill="#d7e9fe"/><g><path d="m138.928 0v64.29h63.299l21.432-34.301-21.432-29.989z" fill="#ffea80"/><g fill="#d7e9fe"><path d="m162.982 117.242v30.065h39.245l17.53-13.281-17.53-16.784z"/><path d="m162.982 207.174h39.245l19.481-14.69-19.481-15.374h-39.245z"/><path d="m162.982 267.042h39.245l16.555-14.117-16.555-15.947h-39.245z"/><path d="m162.982 326.91h39.245l16.555-13.545-16.555-16.52h-39.245z"/></g></g><g><g><path d="m101.648 117.242h29.265v30.064h-29.265z" fill="#bee569"/></g></g><g><g><path d="m101.648 177.11h29.265v30.064h-29.265z" fill="#bee569"/></g></g><g><g><path d="m101.648 236.978h29.265v30.064h-29.265z" fill="#bee569"/></g></g><g><g><path d="m101.648 296.845h29.265v30.064h-29.265z" fill="#f33"/></g></g><g fill="#bfdaf3"><path d="m202.227 117.242h93.953v30.064h-93.953z"/><path d="m202.227 177.11h93.953v30.064h-93.953z"/><path d="m202.227 236.978h93.953v30.064h-93.953z"/><path d="m202.227 296.845h93.953v30.064h-93.953z"/></g><path d="m202.227 0h63.299v64.29h-63.299z" fill="#fc6"/></g><g><g><path d="m296.98 404.491c0 59.28 48.229 107.509 107.51 107.509l18.252-109.461-18.252-105.558c-59.281 0-107.51 48.229-107.51 107.51z" fill="#bee569"/></g></g><path d="m404.49 296.981v215.019c59.282 0 107.51-48.229 107.51-107.509 0-59.281-48.228-107.51-107.51-107.51z" fill="#22d683"/></g><g><path d="m394.235 402.668-16.594-16.594-21.258 21.258 37.852 37.853 10.255-10.255 7.212-25.688-7.212-16.829z" fill="#edf6ff"/></g></g><path d="m450.028 389.391-21.258-21.258-24.28 24.28v42.517z" fill="#d7e9fe"/></g></svg>