<svg id="Capa_1" enable-background="new 0 0 497 497" height="512" viewBox="0 0 497 497" width="512" xmlns="http://www.w3.org/2000/svg"><g><g fill="#d0e2ed"><path d="m95.687 91.022h33.133v48.66h-33.133z" transform="matrix(.787 -.617 .617 .787 -47.244 93.73)"/><path d="m363.09 97.483h45.356v33.133h-45.356z" transform="matrix(.617 -.787 .787 .617 58.136 347.463)"/><path d="m223.65 39.167h49.7v54.2h-49.7z"/></g><path d="m231.733 31.083h33.533v49.7h-33.533z" fill="#aabfcf" transform="matrix(0 1 -1 0 304.433 -192.567)"/><ellipse cx="248.5" cy="289.917" fill="#394d5c" rx="207.083" ry="207.083" transform="matrix(.707 -.707 .707 .707 -132.218 260.631)"/><path d="m248.5 82.833c-3.86 0-7.692.115-11.5.323 109.019 5.969 195.583 96.251 195.583 206.76s-86.564 200.792-195.583 206.76c3.808.208 7.64.323 11.5.323 114.369 0 207.083-92.714 207.083-207.083s-92.714-207.083-207.083-207.083z" fill="#2c4252"/><circle cx="248.5" cy="289.917" fill="#d0e2ed" r="173.95"/><path d="m254.862 182.418c57.013 3.322 102.118 51 101.31 109.032-.807 57.998-48.141 105.332-106.139 106.139-58.032.807-105.71-44.297-109.032-101.31-.201-3.449 2.541-6.362 5.997-6.362h46.161c3.083 0 5.601 2.357 5.933 5.422 2.769 25.523 24.861 45.247 51.344 44.242 25.759-.978 46.749-21.968 47.727-47.727 1.006-26.483-18.719-48.575-44.242-51.344-3.065-.333-5.422-2.851-5.422-5.933v-46.161c.001-3.456 2.914-6.199 6.363-5.998z" fill="#83e85a"/><path d="m192.8 248.5h-37.7c-3.314 0-6-2.686-6-6v-21.133c0-3.314 2.686-6 6-6h37.7c3.314 0 6 2.686 6 6v21.133c0 3.314-2.686 6-6 6z" fill="#fafafa"/><g><g><path d="m260.214 285.702c-1.919 0-3.839-.732-5.303-2.197-2.929-2.929-2.929-7.678 0-10.607l76.555-76.555c2.929-2.929 7.678-2.929 10.606 0 2.929 2.929 2.929 7.678 0 10.607l-76.555 76.555c-1.464 1.465-3.384 2.197-5.303 2.197z" fill="#394d5c"/></g><g><path d="m229.604 316.313c-1.919 0-3.839-.732-5.303-2.197-2.929-2.929-2.929-7.678 0-10.606l7.182-7.182c2.929-2.929 7.678-2.929 10.606 0 2.929 2.929 2.929 7.678 0 10.607l-7.182 7.182c-1.465 1.464-3.384 2.196-5.303 2.196z" fill="#394d5c"/></g></g><ellipse cx="248.5" cy="289.917" fill="#fdbe40" rx="16.567" ry="16.567" transform="matrix(.341 -.94 .94 .341 -108.71 424.843)"/><path d="m290.2 49.7h-83.4c-4.418 0-8-3.582-8-8v-33.7c0-4.418 3.582-8 8-8h83.4c4.418 0 8 3.582 8 8v33.7c0 4.418-3.582 8-8 8z" fill="#394d5c"/><path d="m248.5 115.967c-3.865 0-7.697.14-11.5.388 90.707 5.922 162.45 81.358 162.45 173.562s-71.743 167.64-162.45 173.562c3.803.248 7.635.388 11.5.388 96.07 0 173.95-77.88 173.95-173.95s-77.88-173.95-173.95-173.95z" fill="#aabfcf"/><g fill="#fdbe40"><path d="m421.66 273.35h-24.06c-4.575 0-8.283 3.709-8.283 8.283v16.567c0 4.575 3.709 8.283 8.283 8.283h24.06c.515-5.454.79-10.978.79-16.567 0-5.588-.274-11.112-.79-16.566z"/><path d="m248.5 115.967c-5.589 0-11.113.275-16.567.79v24.06c0 4.575 3.709 8.283 8.283 8.283h16.567c4.575 0 8.283-3.709 8.283-8.283v-24.06c-5.453-.516-10.977-.79-16.566-.79z"/><path d="m75.34 306.483h24.06c4.575 0 8.283-3.709 8.283-8.283v-16.567c0-4.575-3.709-8.283-8.283-8.283h-24.06c-.515 5.454-.79 10.978-.79 16.567 0 5.588.275 11.113.79 16.566z"/><path d="m256.783 430.733h-16.567c-4.575 0-8.283 3.708-8.283 8.283v24.06c5.454.515 10.978.79 16.567.79s11.113-.275 16.567-.79v-24.06c0-4.574-3.709-8.283-8.284-8.283z"/></g><path d="m290.2 0h-23c4.418 0 8 3.582 8 8v33.7c0 4.418-3.582 8-8 8h23c4.418 0 8-3.582 8-8v-33.7c0-4.418-3.582-8-8-8z" fill="#2c4252"/><path d="m368.766 108.891 26.08 20.436 17.947-22.918-26.088-20.428z" fill="#aabfcf"/><path d="m128.237 108.891-26.08 20.436-17.946-22.918 26.087-20.428z" fill="#aabfcf"/><path d="m120.807 85.511-39.577 30.991c-3.479 2.724-8.507 2.112-11.231-1.367l-10.563-13.49c-2.724-3.479-2.112-8.507 1.366-11.231l39.577-30.991c3.479-2.724 8.507-2.112 11.231 1.366l10.563 13.49c2.725 3.48 2.113 8.508-1.366 11.232z" fill="#fdbe40"/><path d="m376.193 85.511 39.577 30.991c3.479 2.724 8.507 2.112 11.231-1.367l10.563-13.49c2.724-3.479 2.112-8.507-1.366-11.231l-39.578-30.99c-3.479-2.724-8.507-2.112-11.231 1.366l-10.563 13.49c-2.723 3.479-2.112 8.507 1.367 11.231z" fill="#fdbe40"/><path d="m436.197 90.415-39.577-30.991c-3.479-2.724-8.507-2.112-11.231 1.366l-3.787 4.837 31.655 24.787c3.479 2.724 4.09 7.752 1.367 11.231l-6.776 8.653 7.922 6.203c3.479 2.724 8.507 2.112 11.231-1.366l10.563-13.49c2.724-3.478 2.112-8.506-1.367-11.23z" fill="#faa83c"/><path d="m122.174 74.28-10.563-13.49c-2.724-3.479-7.752-4.09-11.231-1.366l-7.91 6.194 6.783 8.662c2.724 3.479 2.112 8.507-1.366 11.231l-31.667 24.797 3.78 4.827c2.724 3.479 7.752 4.09 11.231 1.366l39.577-30.991c3.478-2.723 4.09-7.751 1.366-11.23z" fill="#faa83c"/><path d="m421.66 306.483c.515-5.454.79-10.978.79-16.567s-.275-11.113-.79-16.567h-22.994c.515 5.453.784 10.978.784 16.567 0 5.588-.269 11.113-.784 16.567z" fill="#faa83c"/></g></svg>